<svg width="1415" height="740" viewBox="0 0 1415 740" fill="none" xmlns="http://www.w3.org/2000/svg">
<path opacity="0.9" d="M2.11709 128.991C2.11709 128.991 178.995 49.8702 412.799 98.663C671.457 152.601 978.833 183.432 1198.41 119.91C1417.98 56.3882 1396.07 27.6867 1396.07 27.6867" stroke="white" stroke-miterlimit="10"/>
<path opacity="0.9" d="M9.93741 235.648C9.93741 235.648 187.735 156.461 422.458 205.188C682.258 258.945 894.475 244.644 1115.2 181.04C1335.92 117.436 1412.31 158.593 1412.31 158.593" stroke="white" stroke-miterlimit="10"/>
<path opacity="0.9" d="M1.90667 702.274C1.90667 702.274 184.543 769.552 415.538 705.438C671.223 634.65 883.922 634.912 1108.36 683.808C1332.8 732.705 1406.31 686.595 1406.31 686.595" stroke="white" stroke-miterlimit="10"/>
</svg>
